HIERARCHY
ROOT Hips
{
	OFFSET 44.923901 0.247888 85.397903
	CHANNELS 6 Xposition Yposition Zposition Xrotation Yrotation Zrotation
	JOINT spine
	{
		OFFSET 0.000000 -0.367607 6.392601
		CHANNELS 3 Xrotation Yrotation Zrotation
		JOINT spine1
		{
			OFFSET 0.000000 -0.000001 9.176109
			CHANNELS 3 Xrotation Yrotation Zrotation
			JOINT spine2
			{
				OFFSET 0.000000 -0.000001 8.792381
				CHANNELS 3 Xrotation Yrotation Zrotation
				JOINT Neck
				{
					OFFSET 0.000000 -1.076244 22.573708
					CHANNELS 3 Xrotation Yrotation Zrotation
					JOINT Head
					{
						OFFSET 0.000000 -0.000001 6.820114
						CHANNELS 3 Xrotation Yrotation Zrotation
						End Site
						{
							OFFSET 0.000000 5.444268 16.508499
						}
					}
				}
				JOINT RightShoulder
				{
					OFFSET -3.702209 0.515506 9.495087
					CHANNELS 3 Xrotation Yrotation Zrotation
					JOINT RightArm
					{
						OFFSET 0.000000 -0.000002 12.453697
						CHANNELS 3 Xrotation Yrotation Zrotation
						JOINT RightArmRoll
						{
							OFFSET 0.000000 -0.000001 6.286865
							CHANNELS 3 Xrotation Yrotation Zrotation
							JOINT RightForeArm
							{
								OFFSET 0.000000 -0.000003 18.311401
								CHANNELS 3 Xrotation Yrotation Zrotation
								JOINT RightForeArmRoll
								{
									OFFSET 0.000000 -0.000001 7.054825
									CHANNELS 3 Xrotation Yrotation Zrotation
									JOINT RightHand
									{
										OFFSET 0.000000 -0.000002 14.157501
										CHANNELS 3 Xrotation Yrotation Zrotation
										End Site
										{
											OFFSET 0.000000 -0.000000 0.100006
										}
									}
								}
							}
						}
					}
				}
				JOINT LeftShoulder
				{
					OFFSET 3.702209 0.515506 9.495087
					CHANNELS 3 Xrotation Yrotation Zrotation
					JOINT LeftArm
					{
						OFFSET 0.000000 -0.000002 12.453697
						CHANNELS 3 Xrotation Yrotation Zrotation
						JOINT LeftArmRoll
						{
							OFFSET 0.000000 -0.000001 6.286865
							CHANNELS 3 Xrotation Yrotation Zrotation
							JOINT LeftForeArm
							{
								OFFSET 0.000000 -0.000003 18.311401
								CHANNELS 3 Xrotation Yrotation Zrotation
								JOINT LeftForeArmRoll
								{
									OFFSET 0.000000 -0.000001 7.054825
									CHANNELS 3 Xrotation Yrotation Zrotation
									JOINT LeftHand
									{
										OFFSET 0.000000 -0.000002 14.157501
										CHANNELS 3 Xrotation Yrotation Zrotation
										End Site
										{
											OFFSET 0.000000 -0.000000 0.100006
										}
									}
								}
							}
						}
					}
				}
			}
		}
	}
	JOINT RightUpLeg
	{
		OFFSET -5.666161 0.871610 -1.039032
		CHANNELS 3 Xrotation Yrotation Zrotation
		JOINT RightUpLegRoll
		{
			OFFSET 0.000000 -0.000003 16.600502
			CHANNELS 3 Xrotation Yrotation Zrotation
			JOINT RightLeg
			{
				OFFSET 0.000000 0.000003 -20.557198
				CHANNELS 3 Xrotation Yrotation Zrotation
				JOINT RightLegRoll
				{
					OFFSET 0.000000 -0.000003 20.624397
					CHANNELS 3 Xrotation Yrotation Zrotation
					JOINT RightFoot
					{
						OFFSET 0.000000 -0.000003 17.166405
						CHANNELS 3 Xrotation Yrotation Zrotation
						JOINT RightToeBase
						{
							OFFSET 0.000000 -0.000002 14.350204
							CHANNELS 3 Xrotation Yrotation Zrotation
							End Site
							{
								OFFSET 0.006081 0.801059 6.949707
							}
						}
					}
				}
			}
		}
	}
	JOINT LeftUpLeg
	{
		OFFSET 5.666161 0.871610 -1.039032
		CHANNELS 3 Xrotation Yrotation Zrotation
		JOINT LeftUpLegRoll
		{
			OFFSET 0.000000 -0.000003 16.600601
			CHANNELS 3 Xrotation Yrotation Zrotation
			JOINT LeftLeg
			{
				OFFSET 0.000000 -0.000003 20.557098
				CHANNELS 3 Xrotation Yrotation Zrotation
				JOINT LeftLegRoll
				{
					OFFSET 0.000000 -0.000003 20.815094
					CHANNELS 3 Xrotation Yrotation Zrotation
					JOINT LeftFoot
					{
						OFFSET 0.000000 -0.000003 16.975708
						CHANNELS 3 Xrotation Yrotation Zrotation
						JOINT LeftToeBase
						{
							OFFSET 0.000000 -0.000002 14.350204
							CHANNELS 3 Xrotation Yrotation Zrotation
							End Site
							{
								OFFSET -0.027260 0.801060 6.949707
							}
						}
					}
				}
			}
		}
	}
}
MOTION
Frames: 7
Frame Time: 0.041667
48.609100 0.101038 85.413506 -6.053891 1.066480 5.069130 -0.550260 -0.133296 -0.091956 2.902112 -0.266255 -0.183884 4.547181 -0.268437 -0.180681 5.128200 0.647788 -0.231359 6.073727 -1.283666 -0.158862 -3.526775 -56.500534 -3.880498 -36.629044 -117.814821 -32.081122 0.000001 0.000014 -0.000007 8.549699 -14.143053 0.663659 -0.000003 0.000000 -3.000001 -5.000203 -7.998734 0.000170 -3.933149 52.070623 3.907466 -39.755113 118.676326 41.715606 -0.000002 -0.000025 0.000006 7.851844 13.607873 -0.476974 -0.000002 0.000024 3.004530 -5.000191 7.998714 -0.000155 3.328846 -172.839986 2.313050 -179.999991 0.000006 -1.200005 173.615103 -2.158536 -0.642480 0.000004 0.000002 -0.047829 68.557593 6.505249 3.150052 25.459730 -7.353089 0.000116 2.356338 169.930353 -2.833320 -0.000005 -0.000004 -1.039451 -8.957697 0.681948 0.868144 -0.000004 0.000001 0.144979 69.032442 -5.729852 -5.138442 25.458977 7.355619 -0.006089 
48.616402 0.106866 85.412010 -6.037887 1.060007 5.068644 -0.555689 -0.131586 -0.094484 2.891351 -0.262480 -0.189018 4.536420 -0.264725 -0.185859 5.157691 0.647701 -0.223691 6.056135 -1.277612 -0.152013 -3.462633 -56.520246 -3.805995 -36.641940 -117.796939 -32.113292 -0.000001 0.000013 -0.000007 8.570635 -14.155872 0.668025 0.000001 0.000000 -3.000001 -5.000200 -7.998733 0.000169 -3.926589 52.071235 3.899484 -39.712776 118.654442 41.686765 -0.000000 -0.000027 0.000006 7.917929 13.618470 -0.484545 -0.000006 0.000024 3.004530 -5.000192 7.998713 -0.000154 3.308978 -172.831844 2.313692 -179.999991 0.000005 -1.200005 173.608751 -2.158507 -0.642719 0.000004 0.000003 -0.047829 68.554322 6.503374 3.154589 25.459730 -7.353089 0.000116 2.343392 169.938248 -2.826983 -0.000005 -0.000003 -1.039480 -8.952484 0.685117 0.868125 -0.000004 0.000002 0.144979 69.030796 -5.731467 -5.134328 25.458979 7.355619 -0.006088 
48.608505 0.110748 85.405998 -6.020918 1.053189 5.067738 -0.561463 -0.129783 -0.097171 2.879950 -0.258493 -0.194500 4.525017 -0.260804 -0.191389 5.188753 0.648071 -0.215404 6.037756 -1.271430 -0.144629 -3.394657 -56.540637 -3.726990 -36.656222 -117.777173 -32.146224 -0.000001 0.000014 -0.000007 8.590168 -14.168637 0.672230 0.000001 0.000000 -3.000002 -5.000200 -7.998734 0.000168 -3.920929 52.071918 3.892607 -39.666341 118.632340 41.653683 -0.000002 -0.000027 0.000005 7.985173 13.629508 -0.492311 -0.000003 0.000024 3.004531 -5.000194 7.998714 -0.000154 3.287914 -172.823703 2.314339 -179.999991 0.000005 -1.201002 173.602099 -2.158481 -0.642970 0.000004 0.000003 -0.047829 68.550927 6.501416 3.159316 25.459732 -7.353089 0.000116 2.329873 169.947141 -2.820232 -0.000005 -0.000003 -1.039521 -8.946919 0.688415 0.868095 -0.000004 0.000002 0.144981 69.029361 -5.733140 -5.130011 25.458979 7.355621 -0.006089 
48.605900 0.106721 85.408005 -6.003284 1.046142 5.066548 -0.567477 -0.127913 -0.099973 2.868089 -0.254354 -0.200228 4.513167 -0.256734 -0.197166 5.220906 0.648763 -0.206685 6.018825 -1.265139 -0.136872 -3.323957 -56.561452 -3.644790 -36.671313 -117.756505 -32.179419 0.000000 0.000014 -0.000007 8.608694 -14.181341 0.676315 0.000001 0.000000 -3.000001 -5.000202 -7.998735 0.000166 -3.915890 52.072597 3.886492 -39.618837 118.608721 41.619741 -0.000000 -0.000029 0.000005 8.053225 13.640893 -0.500211 -0.000004 0.000024 3.004530 -5.000191 7.998714 -0.000155 3.265997 -172.814564 2.315040 -179.999991 0.000005 -1.201002 173.595186 -2.158452 -0.642233 0.000004 0.000003 -0.047829 68.547410 6.499412 3.164143 25.459733 -7.353088 0.000116 2.315945 169.956048 -2.813231 -0.000005 -0.000003 -1.039570 -8.941125 0.691802 0.868056 -0.000003 0.000002 0.144978 69.027859 -5.734939 -5.125424 25.458975 7.355619 -0.006089 
48.606201 0.110790 85.411491 -5.985257 1.038946 5.065201 -0.573629 -0.126004 -0.102837 2.855986 -0.250128 -0.206094 4.501055 -0.252579 -0.203083 5.253698 0.649646 -0.197720 5.999593 -1.258810 -0.128900 -3.251658 -56.582479 -3.560714 -36.685899 -117.735659 -32.211783 -0.000000 0.000014 -0.000007 8.626666 -14.194060 0.680340 0.000001 0.000000 -3.000001 -5.000200 -7.998734 0.000168 -3.911222 52.073246 3.880825 -39.570062 118.584706 41.584545 -0.000001 -0.000026 0.000005 8.121740 13.652336 -0.508192 -0.000003 0.000023 3.004530 -5.000192 7.998715 -0.000155 3.243592 -172.805439 2.315732 -179.999991 0.000006 -1.201999 173.588179 -2.158422 -0.642497 0.000003 0.000002 -0.047829 68.543872 6.497333 3.169155 25.459732 -7.353089 0.000116 2.301795 169.964941 -2.806078 -0.000005 -0.000005 -1.039621 -8.935182 0.695239 0.868014 -0.000003 0.000002 0.144978 69.026472 -5.736792 -5.120641 25.458977 7.355620 -0.006089 
48.607800 0.106006 85.411499 -5.967139 1.031720 5.063824 -0.579819 -0.124086 -0.105719 2.843817 -0.245879 -0.211994 4.488883 -0.248400 -0.209033 5.286642 0.650584 -0.188695 5.980272 -1.252459 -0.120871 -3.178895 -56.603461 -3.476093 -36.700495 -117.714841 -32.244029 -0.000002 0.000014 -0.000007 8.644494 -14.206782 0.684370 0.000002 0.000000 -3.000000 -5.000201 -7.998734 0.000169 -3.906637 52.073898 3.875264 -39.521039 118.560650 41.549079 -0.000001 -0.000026 0.000005 8.190366 13.663858 -0.516225 -0.000003 0.000024 3.004530 -5.000192 7.998714 -0.000154 3.221079 -172.796273 2.316424 -179.999991 0.000005 -1.201999 173.581130 -2.158391 -0.642762 0.000003 0.000002 -0.047829 68.540231 6.495247 3.174272 25.459733 -7.353090 0.000117 2.287573 169.973847 -2.798887 -0.000005 -0.000004 -1.039671 -8.929208 0.698692 0.867969 -0.000004 0.000002 0.144978 69.025099 -5.738678 -5.115760 25.458979 7.355619 -0.006089 
48.610001 0.108496 85.406708 -5.949204 1.024563 5.062522 -0.585938 -0.122186 -0.108568 2.831767 -0.241668 -0.217822 4.476842 -0.244261 -0.214911 5.319266 0.651442 -0.179793 5.961116 -1.246148 -0.112944 -3.106803 -56.624198 -3.392262 -36.715129 -117.693995 -32.276527 0.000001 0.000013 -0.000007 8.662615 -14.219489 0.688429 -0.000001 -0.000000 -3.000002 -5.000203 -7.998734 0.000168 -3.901871 52.074561 3.869482 -39.472462 118.536799 41.514067 0.000000 -0.000028 0.000006 8.258783 13.675260 -0.524251 -0.000005 0.000024 3.004531 -5.000188 7.998714 -0.000154 3.198795 -172.787148 2.317109 -179.999991 0.000005 -1.202996 173.574149 -2.158362 -0.643025 0.000004 0.000002 -0.047829 68.536707 6.493203 3.179192 25.459732 -7.353090 0.000116 2.273475 169.982727 -2.791781 -0.000005 -0.000004 -1.039732 -8.923304 0.702118 0.867925 -0.000004 0.000003 0.144978 69.023713 -5.740528 -5.110974 25.458979 7.355618 -0.006088 
